DBRep_DrawableShape

CASCADE Topology V1, (c) Matra-Datavision
Locations 0
Curve2ds 6
1 1 0 0 1 
1 0 0 0 1 
2 0 0 1 0 -0 1 0.75
7 0 0  1 2 2  0 0  1 0 
 0 2 6.2831853071795862 2
2 0 -1.7763568394002505e-15 1 0 -0 1 0.19999999999999929
7 0 0  1 2 2  0 1  1 1 
 0 2 6.2831853071795862 2
Curves 3
7 0 0  3 4 2  16.750000000000206 14.000000000000004 -0.79999999999954419  15.441666666666542 14.000000000000004 1.6833333333292941  19.458333333333311 14.000000000000004 0.86666666666707037  16.20000000000055 14.000000000000004 2.5999999999937913 
 0 4 1 4
2 16 14 -0.80000000000000004 0 0 1 1 0 -0 -0 1 0 0.75
2 16 14 2.6000000000000001 0 0 1 1 0 -0 -0 1 0 0.20000000000000001
Polygon3D 0
PolygonOnTriangulations 0
Surfaces 3
9 0 0 1 0 13 3 13 4 2 2 16.750000000000206 14.000000000000004 -0.79999999999954419  15.441666666666542 14.000000000000004 1.6833333333292941  19.458333333333311 14.000000000000004 0.86666666666707037  16.20000000000055 14.000000000000004 2.5999999999937913  
16.750000000000206 14.362491460030004 -0.79999999999954419  15.441666666666542 13.730145246422003 1.6833333333292941  19.458333333333311 15.671488399025003 0.86666666666707037  16.20000000000055 14.096664389341004 2.5999999999937913  
16.560198873875351 14.724983065015003 -0.79999999999967919  15.582963060559486 13.460289763540004 1.6833333333300278  18.58313925175986 17.342979019940003 0.86666666666477354  16.149386366366549 14.193326953158003 2.5999999999981167  
16.180607921380258 14.979059449448004 -0.79999999999991012  15.86554743630635 13.271148597695003 1.6833333333273082  16.83280319303266 18.514541991744004 0.86666666666076431  16.048162112368757 14.261094416706003 2.5999999999918355  
15.679284115014404 15.016318695847003 -0.79999999999997584  16.238755158823274 13.243394503115004 1.6833333333241569  14.521143419232047 18.686390155790004 0.86666666666430103  15.914475764004173 14.270980248963003 2.5999999999921943  
15.192684068068452 14.775851506805003 -0.79999999999964899  16.60100186043794 13.422447505997004 1.6833333333242368  12.277376536095161 17.577472878721004 0.86666666666281955  15.784715751486132 14.206971285004004 2.5999999999959513  
14.887225015289204 14.292085754324004 -0.79999999999975202  16.828399155284721 13.782522031397004 1.6833333333317189  10.868870903833582 15.346930745898003 0.86666666665749759  15.703260004076085 14.077780480002003 2.6000000000004473  
14.887225015283221 13.707914245676003 -0.80000000000017035  16.828399155289702 14.217477968603003 1.683333333332067  10.868870903805963 12.653069254101004 0.86666666666559244  15.703260004076085 13.922219519998004 2.6000000000004473  
15.192684068073511 13.224148493195004 -0.80000000000029825  16.601001860434948 14.577552494003003 1.6833333333240272  12.277376536117103 10.422527121279002 0.86666666666435432  15.784715751486132 13.793028714996003 2.5999999999959513  
15.679284115011406 12.983681304153004 -0.80000000000018545  16.238755158826265 14.756605496885003 1.6833333333243665  14.521143419218085 9.313609844209001 0.86666666666332404  15.914475764004173 13.729019751037004 2.5999999999921943  
16.180607921382254 13.020940550552004 -0.79999999999977067  15.865547436304361 14.728851402305004 1.6833333333271678  16.832803193039645 9.4854580082570017 0.8666666666612528  16.048162112368757 13.738905583294004 2.5999999999918355  
16.560198873875351 13.275016934985004 -0.79999999999967919  15.582963060559486 14.539710236460003 1.6833333333300278  18.583139251756862 10.657020980060002 0.86666666666456393  16.149386366366549 13.806673046842004 2.5999999999981167  
16.750000000000206 13.637508539970003 -0.79999999999954419  15.441666666666542 14.269854753578004 1.6833333333292941  19.458333333333311 12.328511600975004 0.86666666666707037  16.20000000000055 13.903335610659003 2.5999999999937913  

0 13
1 13

0 4
1 4

1 16 14 -0.79999999999999993 0 0 1 1 0 -0 -0 1 0 
1 16 14.000000000000002 2.6000000000000001 0 0 1 1 0 -0 -0 1 0 
Triangulations 0

TShapes 13
Ve
1.00000250139161e-07
16.7500000000001 14 -0.799999999999772
0 0

0101101
*
Ve
1.00003116592202e-07
16.2000000000003 14 2.5999999999969
0 0

0101101
*
Ed
 1e-07 1 1 0
1  1 0 0 1
3  1 2C0 1 0 0 1
0

0101000
+13 0 -12 0 *
Ed
 1e-07 1 1 0
1  2 0 0 6.28318530717959
2  3 2 0 0 6.28318530717959
2  4 1 0 0 6.28318530717959
4 C0 1 0 2 0
0

0101000
+13 0 -13 0 *
Ed
 1e-07 1 1 0
1  3 0 0 6.28318530717959
2  5 3 0 0 6.28318530717959
2  6 1 0 0 6.28318530717959
4 C0 1 0 3 0
0

0101000
+12 0 -12 0 *
Wi

0101100
-11 0 +10 0 +11 0 -9 0 *
Fa
0  1e-07 1 0

0101000
+8 0 *
Wi

0101100
+10 0 *
Fa
0  1e-07 2 0

0101000
+6 0 *
Wi

0101100
+9 0 *
Fa
0  1e-07 3 0

0101000
+4 0 *
Sh

0101100
+7 0 -5 0 +3 0 *
So

1100000
+2 0 *

+1 0 